<?xml version="1.0" encoding="UTF-8" standalone="no"?>
<!-- Created with Inkscape (http://www.inkscape.org/) -->

<svg
   xmlns:dc="http://purl.org/dc/elements/1.1/"
   xmlns:cc="http://creativecommons.org/ns#"
   xmlns:rdf="http://www.w3.org/1999/02/22-rdf-syntax-ns#"
   xmlns:svg="http://www.w3.org/2000/svg"
   xmlns="http://www.w3.org/2000/svg"
   xmlns:sodipodi="http://sodipodi.sourceforge.net/DTD/sodipodi-0.dtd"
   xmlns:inkscape="http://www.inkscape.org/namespaces/inkscape"
   width="82.582794mm"
   height="154.23112mm"
   viewBox="0 0 82.582794 154.23112"
   version="1.1"
   id="svg8"
   inkscape:version="0.92.3 (2405546, 2018-03-11)"
   sodipodi:docname="shower-rack-shampoo.svg"
   inkscape:export-filename="/home/algot/Documents/runeman.org/clipart/2019/shower-rack-shampoo.png"
   inkscape:export-xdpi="49.406372"
   inkscape:export-ydpi="49.406372">
  <title
     id="title1082">Shower Rack with Shampoo</title>
  <defs
     id="defs2">
    <filter
       height="1.7505358"
       y="-0.37526798"
       width="1.1261531"
       x="-0.063076533"
       id="filter3475"
       style="color-interpolation-filters:sRGB"
       inkscape:collect="always">
      <feGaussianBlur
         id="feGaussianBlur3477"
         stdDeviation="6.9843604"
         inkscape:collect="always" />
    </filter>
  </defs>
  <sodipodi:namedview
     id="base"
     pagecolor="#ffffff"
     bordercolor="#666666"
     borderopacity="1.0"
     inkscape:pageopacity="0.0"
     inkscape:pageshadow="2"
     inkscape:zoom="1.4142136"
     inkscape:cx="84.562958"
     inkscape:cy="239.03875"
     inkscape:document-units="mm"
     inkscape:current-layer="layer1"
     showgrid="false"
     inkscape:snap-global="false"
     inkscape:window-width="1366"
     inkscape:window-height="712"
     inkscape:window-x="0"
     inkscape:window-y="0"
     inkscape:window-maximized="1"
     fit-margin-top="0"
     fit-margin-left="0"
     fit-margin-right="0"
     fit-margin-bottom="0">
    <inkscape:grid
       type="xygrid"
       id="grid10"
       originx="-44.000001"
       originy="-101.25657" />
  </sodipodi:namedview>
  <metadata
     id="metadata5">
    <rdf:RDF>
      <cc:Work
         rdf:about="">
        <dc:format>image/svg+xml</dc:format>
        <dc:type
           rdf:resource="http://purl.org/dc/dcmitype/StillImage" />
        <dc:title>Shower Rack with Shampoo</dc:title>
        <dc:date>2019-03-29</dc:date>
        <dc:creator>
          <cc:Agent>
            <dc:title>Algot Runeman</dc:title>
          </cc:Agent>
        </dc:creator>
        <dc:rights>
          <cc:Agent>
            <dc:title>Algot Runeman</dc:title>
          </cc:Agent>
        </dc:rights>
        <dc:publisher>
          <cc:Agent>
            <dc:title>runeman.org</dc:title>
          </cc:Agent>
        </dc:publisher>
        <dc:identifier>shower-rack-shampoo.svg</dc:identifier>
        <cc:license
           rdf:resource="http://creativecommons.org/publicdomain/zero/1.0/" />
      </cc:Work>
      <cc:License
         rdf:about="http://creativecommons.org/publicdomain/zero/1.0/">
        <cc:permits
           rdf:resource="http://creativecommons.org/ns#Reproduction" />
        <cc:permits
           rdf:resource="http://creativecommons.org/ns#Distribution" />
        <cc:permits
           rdf:resource="http://creativecommons.org/ns#DerivativeWorks" />
      </cc:License>
    </rdf:RDF>
  </metadata>
  <g
     inkscape:label="Layer 1"
     inkscape:groupmode="layer"
     id="layer1"
     transform="translate(-43.999999,-41.512309)">
    <g
       transform="translate(-0.21592634,-0.93544335)"
       id="g884">
      <path
         sodipodi:nodetypes="ccccc"
         inkscape:connector-curvature="0"
         id="path880"
         d="m 125,177 v 15 c -1.66667,2.53675 -3.33333,3.42204 -5,0 v -5 -1.12253"
         style="fill:none;fill-rule:evenodd;stroke:#000000;stroke-width:3;stroke-linecap:butt;stroke-linejoin:miter;stroke-opacity:1" />
      <path
         style="fill:none;fill-rule:evenodd;stroke:#cccccc;stroke-width:1.5;stroke-linecap:butt;stroke-linejoin:miter;stroke-opacity:1"
         d="m 125,177 v 15 c -0.81323,4.51558 -5.46198,2.12138 -5,0 v -5 0"
         id="path882"
         inkscape:connector-curvature="0"
         sodipodi:nodetypes="ccccc" />
    </g>
    <g
       id="g878"
       transform="translate(-70)">
      <path
         style="fill:none;fill-rule:evenodd;stroke:#000000;stroke-width:3;stroke-linecap:butt;stroke-linejoin:miter;stroke-opacity:1"
         d="m 125,177 v 15 c -1.66667,2.53675 -3.33333,3.42204 -5,0 v -5 -1.12253"
         id="path874"
         inkscape:connector-curvature="0"
         sodipodi:nodetypes="ccccc" />
      <path
         sodipodi:nodetypes="ccccc"
         inkscape:connector-curvature="0"
         id="path876"
         d="m 125,177 v 15 c -0.81323,4.51558 -5.46198,2.12138 -5,0 v -5 0"
         style="fill:none;fill-rule:evenodd;stroke:#cccccc;stroke-width:1.5;stroke-linecap:butt;stroke-linejoin:miter;stroke-opacity:1" />
    </g>
    <path
       style="fill:none;fill-rule:evenodd;stroke:#000000;stroke-width:3;stroke-linecap:butt;stroke-linejoin:miter;stroke-opacity:1"
       d="m 45,182 10,-5 h 70 l -10,5 z"
       id="path856"
       inkscape:connector-curvature="0" />
    <path
       inkscape:connector-curvature="0"
       id="path858"
       d="m 45,182 10,-5 h 70 l -10,5 z"
       style="fill:none;fill-rule:evenodd;stroke:#cccccc;stroke-width:1.5;stroke-linecap:butt;stroke-linejoin:miter;stroke-opacity:1" />
    <path
       style="fill:none;fill-rule:evenodd;stroke:#000000;stroke-width:2.73861289;stroke-linecap:butt;stroke-linejoin:miter;stroke-opacity:1"
       d="m 55,152 v 25"
       id="path848"
       inkscape:connector-curvature="0" />
    <path
       inkscape:connector-curvature="0"
       id="path850"
       d="m 55,152 v 25"
       style="fill:none;fill-rule:evenodd;stroke:#cccccc;stroke-width:1.36930645;stroke-linecap:butt;stroke-linejoin:miter;stroke-opacity:1" />
    <path
       style="fill:#e6e6e6;fill-rule:evenodd;stroke:#000000;stroke-width:0.5;stroke-linecap:butt;stroke-linejoin:miter;stroke-opacity:1"
       d="m 90.000189,41.762309 c -3.726778,0 -4.33697,0.771689 -6.296255,3.941877 -2.628656,4.253256 -1.058333,12.354284 -1.058333,12.354284 L 54.999744,153.05836 H 125.00012 L 97.354262,58.05847 c 0,0 1.57032,-8.101028 -1.058334,-12.354284 -1.959284,-3.170188 -2.568958,-3.941877 -6.295739,-3.941877 z m 0,1.616953 c 3.229528,0 3.404669,0.707645 5.102532,3.767731 2.277914,4.105534 0.917258,11.833386 0.917258,11.833386 L 122.44679,150.68073 H 57.553076 L 83.979887,58.980379 c 0,0 -1.360665,-7.727852 0.917254,-11.833386 1.697863,-3.060086 1.873523,-3.767731 5.103048,-3.767731 z"
       id="path12"
       inkscape:connector-curvature="0"
       sodipodi:nodetypes="ssccccssscccccss" />
    <path
       style="fill:none;fill-rule:evenodd;stroke:#000000;stroke-width:2;stroke-linecap:butt;stroke-linejoin:miter;stroke-opacity:1"
       d="m 55,152 -10.000001,5 H 115 l 10,-5 z"
       id="path19"
       inkscape:connector-curvature="0" />
    <path
       style="fill:none;fill-rule:evenodd;stroke:#000000;stroke-width:2;stroke-linecap:butt;stroke-linejoin:miter;stroke-opacity:1"
       d="m 114.25165,156.43873 v 25 l 10,-5 v -25 z"
       id="path21"
       inkscape:connector-curvature="0"
       sodipodi:nodetypes="ccccc" />
    <path
       style="fill:none;fill-rule:evenodd;stroke:#000000;stroke-width:2;stroke-linecap:butt;stroke-linejoin:miter;stroke-opacity:1"
       d="M 115,182 H 44.999999 V 157 H 115 Z"
       id="path23"
       inkscape:connector-curvature="0"
       sodipodi:nodetypes="ccccc" />
    <path
       inkscape:connector-curvature="0"
       id="path830"
       d="m 55,152 -10.000001,5 H 115 l 10,-5 z"
       style="fill:none;fill-rule:evenodd;stroke:#000000;stroke-width:2;stroke-linecap:butt;stroke-linejoin:miter;stroke-opacity:1" />
    <path
       sodipodi:nodetypes="ccccc"
       inkscape:connector-curvature="0"
       id="path834"
       d="M 115.52917,182 H 45.529166 v -25 h 70.000004 z"
       style="fill:none;fill-rule:evenodd;stroke:#000000;stroke-width:3;stroke-linecap:butt;stroke-linejoin:miter;stroke-opacity:1" />
    <path
       inkscape:connector-curvature="0"
       id="path836"
       d="m 55,152 -10.000001,5 H 115 l 10,-5 z"
       style="fill:none;fill-rule:evenodd;stroke:#000000;stroke-width:3;stroke-linecap:butt;stroke-linejoin:miter;stroke-opacity:1" />
    <path
       sodipodi:nodetypes="ccccc"
       inkscape:connector-curvature="0"
       id="path838"
       d="m 115.01752,157.0215 v 24.94778 l 10.52551,-4.98956 -0.55697,-24.41971 z"
       style="fill:none;fill-rule:evenodd;stroke:#000000;stroke-width:2.04973364;stroke-linecap:butt;stroke-linejoin:miter;stroke-opacity:1" />
    <path
       sodipodi:nodetypes="ccccc"
       inkscape:connector-curvature="0"
       id="path840"
       d="M 115,182 H 44.999999 V 157 H 115 Z"
       style="fill:none;fill-rule:evenodd;stroke:#ffffff;stroke-width:2;stroke-linecap:butt;stroke-linejoin:miter;stroke-opacity:1" />
    <path
       style="fill:none;fill-rule:evenodd;stroke:#cccccc;stroke-width:1.5;stroke-linecap:butt;stroke-linejoin:miter;stroke-opacity:1"
       d="m 115,157 v 25.52917 L 125,177 v -25 z"
       id="path844"
       inkscape:connector-curvature="0"
       sodipodi:nodetypes="ccccc" />
    <path
       style="fill:none;fill-rule:evenodd;stroke:#cccccc;stroke-width:1.5;stroke-linecap:butt;stroke-linejoin:miter;stroke-opacity:1"
       d="M 114.47084,182 H 44.999999 v -25 h 70.529171 z"
       id="path846"
       inkscape:connector-curvature="0"
       sodipodi:nodetypes="ccccc" />
    <path
       style="fill:none;fill-rule:evenodd;stroke:#cccccc;stroke-width:1.00659287;stroke-linecap:butt;stroke-linejoin:miter;stroke-opacity:1"
       d="m 55.132292,152 -10.132293,5 h 70.926051 l 10.13229,-5 z"
       id="path842"
       inkscape:connector-curvature="0" />
    <g
       transform="matrix(0.06025933,0,0,0.08422216,58.998266,96.322011)"
       style="font-style:normal;font-variant:normal;font-weight:bold;font-stretch:normal;font-size:90px;line-height:125%;font-family:sans-serif;-inkscape-font-specification:'sans-serif Bold';text-align:center;letter-spacing:0px;word-spacing:0px;text-anchor:middle;fill:#ffff00;fill-opacity:1;stroke:#000000;stroke-width:1px;stroke-linecap:butt;stroke-linejoin:miter;stroke-opacity:1"
       id="text3628" />
    <g
       id="g1386"
       transform="translate(50.888118,13.283296)">
      <path
         sodipodi:nodetypes="csssssccssssscc"
         inkscape:connector-curvature="0"
         id="path3346"
         d="m 14.658887,106.02743 c 0,0 -0.716928,1.2073 -1.515852,2.32393 -0.798924,1.11662 -1.932079,1.75583 -3.031704,2.11864 -0.983534,0.32451 -2.0980602,1.37286 -3.0317028,1.91338 -0.6601849,0.3822 -1.427218,1.12762 -1.5158511,2.11865 -1.5158519,16.94918 -1.5158519,33.89836 0,50.84754 0.088633,0.99103 1.5158511,2.11865 1.5158511,2.11865 7.3373108,3.04261 14.8863378,3.12616 22.6650128,0 0,0 1.423035,-1.12837 1.515852,-2.11865 1.588613,-16.94918 1.588613,-33.89836 0,-50.84754 -0.09282,-0.99028 -0.855667,-1.73645 -1.515852,-2.11865 -0.933642,-0.54052 -2.048168,-1.58887 -3.031703,-1.91338 -1.099625,-0.36281 -2.232779,-1.00202 -3.031703,-2.11864 -0.798923,-1.11663 -1.515852,-2.32393 -1.515852,-2.32393 z"
         style="fill:#f2f2f2;fill-rule:evenodd;stroke:#000000;stroke-width:0.10115303px;stroke-linecap:butt;stroke-linejoin:miter;stroke-opacity:1" />
      <path
         style="opacity:1;fill:#ff0000;fill-opacity:1;stroke:#000000;stroke-width:0.32512605;stroke-linecap:round;stroke-linejoin:miter;stroke-miterlimit:4;stroke-dasharray:none;stroke-dashoffset:0;stroke-opacity:1"
         id="path3344"
         sodipodi:type="arc"
         sodipodi:cx="18.448515"
         sodipodi:cy="106.07085"
         sodipodi:rx="3.8232484"
         sodipodi:ry="1.3559656"
         sodipodi:start="0"
         sodipodi:end="6.209672"
         sodipodi:open="true"
         d="m 22.271763,106.07085 a 3.8232484,1.3559656 0 0 1 -3.752987,1.35573 3.8232484,1.3559656 0 0 1 -3.890927,-1.3059 3.8232484,1.3559656 0 0 1 3.609978,-1.40374 3.8232484,1.3559656 0 0 1 4.02361,1.25431" />
      <path
         inkscape:connector-curvature="0"
         id="path3340"
         d="m 14.658887,97.552844 v 8.474586 h 7.579258 v -8.474586 z"
         style="fill:#ff0000;fill-rule:evenodd;stroke:none;stroke-width:0.10115303px;stroke-linecap:butt;stroke-linejoin:miter;stroke-opacity:1" />
      <path
         d="m 22.271763,97.460663 a 3.8232484,1.3559656 0 0 1 -3.752987,1.355736 3.8232484,1.3559656 0 0 1 -3.890927,-1.305907 3.8232484,1.3559656 0 0 1 3.609978,-1.403734 3.8232484,1.3559656 0 0 1 4.02361,1.254313"
         sodipodi:open="true"
         sodipodi:end="6.209672"
         sodipodi:start="0"
         sodipodi:ry="1.3559656"
         sodipodi:rx="3.8232484"
         sodipodi:cy="97.460663"
         sodipodi:cx="18.448515"
         sodipodi:type="arc"
         id="path3342"
         style="opacity:1;fill:#ff0000;fill-opacity:1;stroke:#000000;stroke-width:0.20230606;stroke-linecap:round;stroke-linejoin:miter;stroke-miterlimit:4;stroke-dasharray:none;stroke-dashoffset:0;stroke-opacity:1" />
      <path
         sodipodi:nodetypes="ccccc"
         inkscape:connector-curvature="0"
         id="path3348"
         d="m 7.0796282,122.97662 v 25.42377 c 7.5792588,2.15397 15.1585158,2.16433 22.7377738,0 v -25.42377 c -7.579258,2.25029 -15.158515,1.99018 -22.7377738,0 z"
         style="fill:#ff00ff;fill-rule:evenodd;stroke:#000000;stroke-width:0.10115303px;stroke-linecap:butt;stroke-linejoin:miter;stroke-opacity:1" />
      <path
         inkscape:connector-curvature="0"
         id="path3350"
         d="m 16.174738,98.748703 v 8.474587"
         style="fill:none;fill-rule:evenodd;stroke:#000000;stroke-width:0.10115303px;stroke-linecap:butt;stroke-linejoin:miter;stroke-opacity:1" />
      <path
         inkscape:connector-curvature="0"
         id="path3352"
         d="m 14.658887,97.552844 v 8.474586"
         style="fill:none;fill-rule:evenodd;stroke:#000000;stroke-width:0.10115303px;stroke-linecap:butt;stroke-linejoin:miter;stroke-opacity:1" />
      <path
         inkscape:connector-curvature="0"
         id="path3354"
         d="m 22.238145,97.552844 v 8.474586"
         style="fill:none;fill-rule:evenodd;stroke:#000000;stroke-width:0.10115303px;stroke-linecap:butt;stroke-linejoin:miter;stroke-opacity:1" />
      <path
         style="fill:none;fill-rule:evenodd;stroke:#000000;stroke-width:0.10115303px;stroke-linecap:butt;stroke-linejoin:miter;stroke-opacity:1"
         d="m 16.85923,98.748703 v 8.474587"
         id="path3356"
         inkscape:connector-curvature="0" />
      <path
         inkscape:connector-curvature="0"
         id="path3358"
         d="m 17.543721,98.987875 v 8.474595"
         style="fill:none;fill-rule:evenodd;stroke:#000000;stroke-width:0.10115303px;stroke-linecap:butt;stroke-linejoin:miter;stroke-opacity:1" />
      <path
         style="fill:none;fill-rule:evenodd;stroke:#000000;stroke-width:0.10115303px;stroke-linecap:butt;stroke-linejoin:miter;stroke-opacity:1"
         d="m 18.228212,98.981676 v 8.474594"
         id="path3360"
         inkscape:connector-curvature="0" />
      <path
         inkscape:connector-curvature="0"
         id="path3362"
         d="m 18.912703,98.981676 v 8.474594"
         style="fill:none;fill-rule:evenodd;stroke:#000000;stroke-width:0.10115303px;stroke-linecap:butt;stroke-linejoin:miter;stroke-opacity:1" />
      <path
         style="fill:none;fill-rule:evenodd;stroke:#000000;stroke-width:0.10115303px;stroke-linecap:butt;stroke-linejoin:miter;stroke-opacity:1"
         d="m 19.597194,98.987875 v 8.474595"
         id="path3364"
         inkscape:connector-curvature="0" />
      <path
         inkscape:connector-curvature="0"
         id="path3366"
         d="m 20.281686,98.748703 v 8.474587"
         style="fill:none;fill-rule:evenodd;stroke:#000000;stroke-width:0.10115303px;stroke-linecap:butt;stroke-linejoin:miter;stroke-opacity:1" />
      <path
         style="fill:none;fill-rule:evenodd;stroke:#000000;stroke-width:0.10115303px;stroke-linecap:butt;stroke-linejoin:miter;stroke-opacity:1"
         d="m 20.966177,98.509532 v 8.474588"
         id="path3368"
         inkscape:connector-curvature="0" />
      <path
         inkscape:connector-curvature="0"
         id="path3370"
         d="m 21.650668,98.27036 v 8.47459"
         style="fill:none;fill-rule:evenodd;stroke:#000000;stroke-width:0.10115303px;stroke-linecap:butt;stroke-linejoin:miter;stroke-opacity:1" />
      <path
         inkscape:connector-curvature="0"
         id="path3372"
         d="m 15.490247,98.509532 v 8.474588"
         style="fill:none;fill-rule:evenodd;stroke:#000000;stroke-width:0.10115303px;stroke-linecap:butt;stroke-linejoin:miter;stroke-opacity:1" />
      <path
         transform="matrix(0.09718955,0,0,0.08534324,-7.9920687,93.816596)"
         sodipodi:nodetypes="csscssc"
         inkscape:connector-curvature="0"
         id="path3386"
         d="m 141.73228,229.68502 c 0,0 58.61691,14.74933 88.58268,17.71653 29.38386,2.90957 59.19882,2.90957 88.58268,0 29.96577,-2.9672 88.58267,-17.71653 88.58267,-17.71653 0,0 -27.16239,29.36524 -52.86614,35.43307 -45.98027,10.85447 -114.51533,13.69059 -159.73228,0 -20.379,-6.17027 -53.14961,-35.43307 -53.14961,-35.43307 z"
         style="fill:#cccccc;fill-rule:evenodd;stroke:none;stroke-width:1px;stroke-linecap:butt;stroke-linejoin:miter;stroke-opacity:1;filter:url(#filter3475)" />
      <path
         style="fill:#e6e6e6;fill-rule:evenodd;stroke:none;stroke-width:1px;stroke-linecap:butt;stroke-linejoin:miter;stroke-opacity:1;filter:url(#filter3475)"
         d="m 141.73228,229.68502 c 0,0 58.61691,14.74933 88.58268,17.71653 29.38386,2.90957 59.19882,2.90957 88.58268,0 29.96577,-2.9672 88.58267,-17.71653 88.58267,-17.71653 0,0 -27.16239,29.36524 -52.86614,35.43307 -45.98027,10.85447 -114.51533,13.69059 -159.73228,0 -20.379,-6.17027 -53.14961,-35.43307 -53.14961,-35.43307 z"
         id="path3487"
         inkscape:connector-curvature="0"
         sodipodi:nodetypes="csscssc"
         transform="matrix(0.09857268,0,0,-0.06136228,-8.371886,180.06409)" />
      <path
         style="fill:none;fill-rule:evenodd;stroke:#000000;stroke-width:0.10115303px;stroke-linecap:butt;stroke-linejoin:miter;stroke-opacity:1"
         d="m 14.805756,98.031188 v 8.474592"
         id="path3687"
         inkscape:connector-curvature="0" />
      <g
         transform="matrix(0.3031703,0,0,0.42372953,31.855769,70.961141)"
         id="text998"
         style="font-style:normal;font-variant:normal;font-weight:bold;font-stretch:normal;font-size:12.69999981px;line-height:100%;font-family:sans-serif;-inkscape-font-specification:'sans-serif Bold';text-align:center;letter-spacing:0px;word-spacing:0px;text-anchor:middle;fill:#000000;fill-opacity:1;stroke:none;stroke-width:0.26458332px;stroke-linecap:butt;stroke-linejoin:miter;stroke-opacity:1"
         aria-label="SHAMPOO">
        <path
           inkscape:connector-curvature="0"
           id="path1067"
           style="stroke-width:0.26458332px"
           d="m -72.772593,149.18603 -0.23387,1.94557 q -0.716587,-0.42966 -1.416216,-0.68864 -0.699628,-0.25899 -1.339941,-0.33596 -0.849645,-0.10213 -1.28412,0.083 -0.434476,0.18512 -0.493684,0.67767 -0.0444,0.36941 0.201333,0.6113 0.252635,0.23648 0.955224,0.47084 l 0.9853,0.32455 q 1.496051,0.49213 2.067031,1.19784 0.570979,0.7057 0.431841,1.86319 -0.182803,1.52074 -1.177411,2.15693 -0.987711,0.63077 -2.840923,0.408 -0.874273,-0.1051 -1.73472,-0.37716 -0.860446,-0.27207 -1.701651,-0.70422 l 0.240531,-2.00097 q 0.824182,0.57375 1.614179,0.9123 0.796895,0.33313 1.560344,0.4249 0.775763,0.0933 1.219356,-0.11575 0.443593,-0.209 0.50132,-0.68923 0.05181,-0.43098 -0.203285,-0.69899 -0.248935,-0.26726 -1.064063,-0.55262 l -0.892948,-0.31345 q -1.343609,-0.46131 -1.906212,-1.18475 -0.556445,-0.7227 -0.424709,-1.81862 0.165041,-1.37297 1.140439,-2.00522 0.975398,-0.63225 2.637747,-0.43242 0.757292,0.091 1.543621,0.30422 0.787069,0.20704 1.615487,0.53771 z" />
        <path
           inkscape:connector-curvature="0"
           id="path1069"
           style="stroke-width:0.26458332px"
           d="m -70.384917,149.15481 2.379327,0.19678 -0.290826,3.51646 3.510281,0.29032 0.290826,-3.51646 2.379328,0.19678 -0.7631,9.22684 -2.379327,-0.19678 0.323538,-3.91198 -3.510281,-0.29032 -0.323538,3.91199 -2.379328,-0.19678 z" />
        <path
           inkscape:connector-curvature="0"
           id="path1071"
           style="stroke-width:0.26458332px"
           d="m -54.84932,157.77662 -3.729246,-0.1697 -0.665174,1.6582 -2.397373,-0.10909 3.84655,-9.0929 2.843396,0.12939 3.004856,9.40465 -2.397373,-0.10908 z m -3.056468,-1.85859 2.533657,0.11529 -1.096294,-3.73719 z" />
        <path
           inkscape:connector-curvature="0"
           id="path1073"
           style="stroke-width:0.26458332px"
           d="m -50.661159,150.37374 3.038504,0.0206 2.074722,4.96893 2.15438,-4.94023 3.032303,0.0206 -0.06284,9.25814 -2.257174,-0.0153 0.04596,-6.77152 -2.167033,4.97735 -1.513051,-0.0103 -2.099275,-5.00631 -0.04596,6.77153 -2.263376,-0.0154 z" />
        <path
           inkscape:connector-curvature="0"
           id="path1075"
           style="stroke-width:0.26458332px"
           d="m -38.340457,150.38859 3.960902,-0.11423 q 1.7666,-0.051 2.731489,0.7091 0.970909,0.75367 1.012739,2.20414 0.04201,1.45667 -0.883673,2.27125 -0.919662,0.80819 -2.686261,0.85914 l -1.574443,0.0454 0.0926,3.21088 -2.386459,0.0688 z m 2.436334,1.66058 0.07454,2.58482 1.320301,-0.0381 q 0.694242,-0.02 1.062703,-0.36565 0.368283,-0.35183 0.350406,-0.97169 -0.01788,-0.61986 -0.405643,-0.94368 -0.387768,-0.32382 -1.08201,-0.30379 z" />
        <path
           inkscape:connector-curvature="0"
           id="path1077"
           style="stroke-width:0.26458332px"
           d="m -25.009184,151.41589 q -1.089498,0.0645 -1.642299,0.90483 -0.552802,0.8403 -0.466282,2.30122 0.08615,1.45473 0.734276,2.22391 0.648121,0.76918 1.737618,0.70465 1.095688,-0.0649 1.64849,-0.90519 0.552802,-0.8403 0.466647,-2.29503 -0.08652,-1.46092 -0.734641,-2.2301 -0.648122,-0.76918 -1.743809,-0.70429 z m -0.102285,-1.7271 q 2.228517,-0.13198 3.566865,1.06844 1.338349,1.20042 1.47143,3.4475 0.132714,2.2409 -1.054591,3.5909 -1.187304,1.34999 -3.415821,1.48197 -2.222326,0.13162 -3.566865,-1.06843 -1.338349,-1.20042 -1.471063,-3.44132 -0.133081,-2.24709 1.054224,-3.59708 1.193494,-1.35037 3.415821,-1.48198 z" />
        <path
           inkscape:connector-curvature="0"
           id="path1079"
           style="stroke-width:0.26458332px"
           d="m -14.48028,150.62964 q -1.087064,0.0973 -1.614343,0.95381 -0.52728,0.85655 -0.396861,2.3142 0.129866,1.45148 0.800827,2.20082 0.670961,0.74934 1.758025,0.65208 1.093241,-0.0978 1.62052,-0.95437 0.52728,-0.85655 0.397414,-2.30802 -0.130419,-1.45766 -0.80138,-2.207 -0.670962,-0.74934 -1.764202,-0.65152 z m -0.154181,-1.72325 q 2.223539,-0.19894 3.597385,0.96068 1.373846,1.15963 1.5744477,3.4017 0.2000492,2.23589 -0.9461167,3.62098 -1.146166,1.3851 -3.369705,1.58404 -2.217363,0.19839 -3.597386,-0.96068 -1.373846,-1.15962 -1.573895,-3.39552 -0.200602,-2.24207 0.945564,-3.62716 1.152342,-1.38565 3.369706,-1.58404 z" />
      </g>
      <path
         sodipodi:nodetypes="cc"
         inkscape:connector-curvature="0"
         id="path1000"
         d="m 6.2184518,137.35257 c 8.1816392,1.72245 16.1694632,1.54868 24.0491652,0.31709"
         style="fill:none;fill-rule:evenodd;stroke:#ff00ff;stroke-width:0.09483096px;stroke-linecap:butt;stroke-linejoin:miter;stroke-opacity:1" />
    </g>
    <g
       id="g1122"
       style="font-style:normal;font-variant:normal;font-weight:bold;font-stretch:normal;font-size:90px;line-height:125%;font-family:sans-serif;-inkscape-font-specification:'sans-serif Bold';text-align:center;letter-spacing:0px;word-spacing:0px;text-anchor:middle;fill:#ffff00;fill-opacity:1;stroke:#000000;stroke-width:1px;stroke-linecap:butt;stroke-linejoin:miter;stroke-opacity:1"
       transform="matrix(0.06025933,0,0,0.08422216,28.14071,96.519173)" />
    <g
       id="g1355"
       transform="translate(110.29151,13.064108)">
      <path
         style="fill:#f2f2f2;fill-rule:evenodd;stroke:#000000;stroke-width:0.10115303px;stroke-linecap:butt;stroke-linejoin:miter;stroke-opacity:1"
         d="m -16.19867,106.2246 c 0,0 -0.716927,1.20729 -1.515851,2.32392 -0.798925,1.11662 -1.932079,1.75583 -3.031704,2.11865 -0.983534,0.32451 -2.09806,1.37286 -3.031703,1.91337 -0.660185,0.3822 -1.427218,1.12762 -1.515851,2.11865 -1.515852,16.94918 -1.515852,33.89836 0,50.84754 0.08863,0.99103 1.515851,2.11865 1.515851,2.11865 7.337311,3.04261 14.8863378,3.12616 22.665013,0 0,0 1.42303499,-1.12837 1.515852,-2.11865 1.5886125,-16.94918 1.5886125,-33.89836 0,-50.84754 -0.092817,-0.99028 -0.85566705,-1.73645 -1.515852,-2.11865 -0.9336425,-0.54051 -2.0481688,-1.58886 -3.031703,-1.91337 -1.0996249,-0.36282 -2.2327795,-1.00203 -3.0317031,-2.11865 -0.7989236,-1.11663 -1.515852,-2.32392 -1.515852,-2.32392 z"
         id="path1084"
         inkscape:connector-curvature="0"
         sodipodi:nodetypes="csssssccssssscc" />
      <path
         d="m -8.585793,106.26801 a 3.8232484,1.3559656 0 0 1 -3.752987,1.35574 3.8232484,1.3559656 0 0 1 -3.890927,-1.30591 3.8232484,1.3559656 0 0 1 3.609978,-1.40373 3.8232484,1.3559656 0 0 1 4.0236098,1.25431"
         sodipodi:open="true"
         sodipodi:end="6.209672"
         sodipodi:start="0"
         sodipodi:ry="1.3559656"
         sodipodi:rx="3.8232484"
         sodipodi:cy="106.26801"
         sodipodi:cx="-12.409041"
         sodipodi:type="arc"
         id="path1086"
         style="opacity:1;fill:#0000ff;fill-opacity:1;stroke:#000000;stroke-width:0.32512605;stroke-linecap:round;stroke-linejoin:miter;stroke-miterlimit:4;stroke-dasharray:none;stroke-dashoffset:0;stroke-opacity:1" />
      <path
         style="fill:#0000ff;fill-rule:evenodd;stroke:none;stroke-width:0.10115303px;stroke-linecap:butt;stroke-linejoin:miter;stroke-opacity:1"
         d="m -16.19867,97.750006 v 8.474594 h 7.5792583 v -8.474594 z"
         id="path1088"
         inkscape:connector-curvature="0" />
      <path
         style="opacity:1;fill:#0000ff;fill-opacity:1;stroke:#000000;stroke-width:0.20230606;stroke-linecap:round;stroke-linejoin:miter;stroke-miterlimit:4;stroke-dasharray:none;stroke-dashoffset:0;stroke-opacity:1"
         id="path1090"
         sodipodi:type="arc"
         sodipodi:cx="-12.409041"
         sodipodi:cy="97.657829"
         sodipodi:rx="3.8232484"
         sodipodi:ry="1.3559656"
         sodipodi:start="0"
         sodipodi:end="6.209672"
         sodipodi:open="true"
         d="m -8.585793,97.657829 a 3.8232484,1.3559656 0 0 1 -3.752987,1.355737 3.8232484,1.3559656 0 0 1 -3.890927,-1.305907 3.8232484,1.3559656 0 0 1 3.609978,-1.403735 3.8232484,1.3559656 0 0 1 4.0236098,1.254314" />
      <path
         style="fill:#ff00ff;fill-rule:evenodd;stroke:#000000;stroke-width:0.10115303px;stroke-linecap:butt;stroke-linejoin:miter;stroke-opacity:1"
         d="m -23.777928,123.17378 v 25.42377 c 7.579258,2.15397 15.1585155,2.16433 22.7377736,0 v -25.42377 c -7.5792581,2.2503 -15.1585156,1.99018 -22.7377736,0 z"
         id="path1092"
         inkscape:connector-curvature="0"
         sodipodi:nodetypes="ccccc" />
      <path
         style="fill:none;fill-rule:evenodd;stroke:#000000;stroke-width:0.10115303px;stroke-linecap:butt;stroke-linejoin:miter;stroke-opacity:1"
         d="m -14.682818,98.945865 v 8.474595"
         id="path1094"
         inkscape:connector-curvature="0" />
      <path
         style="fill:none;fill-rule:evenodd;stroke:#000000;stroke-width:0.10115303px;stroke-linecap:butt;stroke-linejoin:miter;stroke-opacity:1"
         d="M -16.19867,97.750006 V 106.2246"
         id="path1096"
         inkscape:connector-curvature="0" />
      <path
         style="fill:none;fill-rule:evenodd;stroke:#000000;stroke-width:0.10115303px;stroke-linecap:butt;stroke-linejoin:miter;stroke-opacity:1"
         d="M -8.6194117,97.750006 V 106.2246"
         id="path1098"
         inkscape:connector-curvature="0" />
      <path
         inkscape:connector-curvature="0"
         id="path1100"
         d="m -13.998327,98.945865 v 8.474595"
         style="fill:none;fill-rule:evenodd;stroke:#000000;stroke-width:0.10115303px;stroke-linecap:butt;stroke-linejoin:miter;stroke-opacity:1" />
      <path
         style="fill:none;fill-rule:evenodd;stroke:#000000;stroke-width:0.10115303px;stroke-linecap:butt;stroke-linejoin:miter;stroke-opacity:1"
         d="m -13.313835,99.185037 v 8.474593"
         id="path1102"
         inkscape:connector-curvature="0" />
      <path
         inkscape:connector-curvature="0"
         id="path1104"
         d="m -12.629344,99.178838 v 8.474592"
         style="fill:none;fill-rule:evenodd;stroke:#000000;stroke-width:0.10115303px;stroke-linecap:butt;stroke-linejoin:miter;stroke-opacity:1" />
      <path
         style="fill:none;fill-rule:evenodd;stroke:#000000;stroke-width:0.10115303px;stroke-linecap:butt;stroke-linejoin:miter;stroke-opacity:1"
         d="m -11.944853,99.178838 v 8.474592"
         id="path1106"
         inkscape:connector-curvature="0" />
      <path
         inkscape:connector-curvature="0"
         id="path1108"
         d="m -11.260362,99.185037 v 8.474593"
         style="fill:none;fill-rule:evenodd;stroke:#000000;stroke-width:0.10115303px;stroke-linecap:butt;stroke-linejoin:miter;stroke-opacity:1" />
      <path
         style="fill:none;fill-rule:evenodd;stroke:#000000;stroke-width:0.10115303px;stroke-linecap:butt;stroke-linejoin:miter;stroke-opacity:1"
         d="m -10.575871,98.945865 v 8.474595"
         id="path1110"
         inkscape:connector-curvature="0" />
      <path
         inkscape:connector-curvature="0"
         id="path1112"
         d="m -9.8913794,98.706694 v 8.474586"
         style="fill:none;fill-rule:evenodd;stroke:#000000;stroke-width:0.10115303px;stroke-linecap:butt;stroke-linejoin:miter;stroke-opacity:1" />
      <path
         style="fill:none;fill-rule:evenodd;stroke:#000000;stroke-width:0.10115303px;stroke-linecap:butt;stroke-linejoin:miter;stroke-opacity:1"
         d="m -9.2068882,98.467522 v 8.474588"
         id="path1114"
         inkscape:connector-curvature="0" />
      <path
         style="fill:none;fill-rule:evenodd;stroke:#000000;stroke-width:0.10115303px;stroke-linecap:butt;stroke-linejoin:miter;stroke-opacity:1"
         d="m -15.367309,98.706694 v 8.474586"
         id="path1116"
         inkscape:connector-curvature="0" />
      <path
         style="fill:#cccccc;fill-rule:evenodd;stroke:none;stroke-width:1px;stroke-linecap:butt;stroke-linejoin:miter;stroke-opacity:1;filter:url(#filter3475)"
         d="m 141.73228,229.68502 c 0,0 58.61691,14.74933 88.58268,17.71653 29.38386,2.90957 59.19882,2.90957 88.58268,0 29.96577,-2.9672 88.58267,-17.71653 88.58267,-17.71653 0,0 -27.16239,29.36524 -52.86614,35.43307 -45.98027,10.85447 -114.51533,13.69059 -159.73228,0 -20.379,-6.17027 -53.14961,-35.43307 -53.14961,-35.43307 z"
         id="path1118"
         inkscape:connector-curvature="0"
         sodipodi:nodetypes="csscssc"
         transform="matrix(0.09718955,0,0,0.08534324,-38.849625,94.013758)" />
      <path
         transform="matrix(0.09857268,0,0,-0.06136228,-39.229442,180.26125)"
         sodipodi:nodetypes="csscssc"
         inkscape:connector-curvature="0"
         id="path1120"
         d="m 141.73228,229.68502 c 0,0 58.61691,14.74933 88.58268,17.71653 29.38386,2.90957 59.19882,2.90957 88.58268,0 29.96577,-2.9672 88.58267,-17.71653 88.58267,-17.71653 0,0 -27.16239,29.36524 -52.86614,35.43307 -45.98027,10.85447 -114.51533,13.69059 -159.73228,0 -20.379,-6.17027 -53.14961,-35.43307 -53.14961,-35.43307 z"
         style="fill:#e6e6e6;fill-rule:evenodd;stroke:none;stroke-width:1px;stroke-linecap:butt;stroke-linejoin:miter;stroke-opacity:1;filter:url(#filter3475)" />
      <path
         inkscape:connector-curvature="0"
         id="path1124"
         d="m -16.0518,98.22835 v 8.47459"
         style="fill:none;fill-rule:evenodd;stroke:#000000;stroke-width:0.10115303px;stroke-linecap:butt;stroke-linejoin:miter;stroke-opacity:1" />
      <g
         transform="translate(8.4666667,-0.26458333)"
         id="g1266">
        <g
           aria-label="CONDITIONER"
           style="font-style:normal;font-variant:normal;font-weight:bold;font-stretch:normal;font-size:2.95048285px;line-height:100%;font-family:sans-serif;-inkscape-font-specification:'sans-serif Bold';text-align:center;letter-spacing:0px;word-spacing:0px;text-anchor:middle;fill:#000000;fill-opacity:1;stroke:none;stroke-width:0.06146839px;stroke-linecap:butt;stroke-linejoin:miter;stroke-opacity:1"
           id="text1184">
          <path
             d="m -30.555737,138.00957 q -0.158992,0.0657 -0.327536,0.0916 -0.168545,0.0259 -0.347953,0.0103 -0.535355,-0.0465 -0.822323,-0.37218 -0.286845,-0.32713 -0.242358,-0.83952 0.04461,-0.51383 0.383418,-0.7852 0.338932,-0.2728 0.874286,-0.22632 0.179408,0.0156 0.340975,0.0701 0.161566,0.0545 0.306851,0.14667 l -0.03851,0.44349 q -0.144477,-0.1181 -0.289508,-0.17986 -0.145031,-0.0618 -0.310086,-0.0761 -0.295665,-0.0257 -0.481475,0.14908 -0.18581,0.17475 -0.21472,0.50773 -0.02879,0.33155 0.124127,0.53571 0.152913,0.20416 0.448578,0.22983 0.165055,0.0143 0.31856,-0.0215 0.153504,-0.0358 0.316174,-0.12728 z"
             style="stroke-width:0.06146839px"
             id="path1388" />
          <path
             d="m -28.995021,136.45626 q -0.252854,-0.0189 -0.406151,0.15749 -0.153298,0.17637 -0.178606,0.51542 -0.0252,0.33762 0.100216,0.53479 0.125416,0.19717 0.37827,0.21604 0.25429,0.019 0.407588,-0.15738 0.153297,-0.17637 0.178498,-0.51398 0.02531,-0.33906 -0.100109,-0.53623 -0.125416,-0.19717 -0.379706,-0.21615 z m 0.02992,-0.40083 q 0.5172,0.0386 0.78819,0.35644 0.27099,0.31783 0.232063,0.83934 -0.03882,0.52007 -0.35399,0.79415 -0.315171,0.27408 -0.832372,0.23547 -0.515764,-0.0385 -0.788191,-0.35643 -0.270989,-0.31783 -0.23217,-0.83791 0.03893,-0.52151 0.354098,-0.79558 0.316608,-0.27398 0.832372,-0.23548 z"
             style="stroke-width:0.06146839px"
             id="path1390" />
          <path
             d="m -27.483296,136.2018 0.618467,0.0355 0.696401,1.51767 0.08459,-1.47282 0.524978,0.0302 -0.123337,2.14737 -0.618467,-0.0355 -0.696401,-1.51767 -0.08459,1.47281 -0.524978,-0.0302 z"
             style="stroke-width:0.06146839px"
             id="path1392" />
          <path
             d="m -24.519946,136.7762 -0.04848,1.31156 0.198676,0.007 q 0.339765,0.0126 0.524512,-0.14929 0.186186,-0.16179 0.198053,-0.48284 0.01181,-0.31961 -0.160535,-0.49321 -0.172348,-0.1736 -0.513552,-0.18621 z m -0.538792,-0.43943 0.584511,0.0216 q 0.489492,0.0181 0.725872,0.0975 0.237872,0.078 0.403022,0.25133 0.145792,0.151 0.212192,0.34375 0.0664,0.19275 0.05751,0.43318 -0.009,0.2433 -0.0895,0.43207 -0.08045,0.18732 -0.236989,0.32714 -0.178934,0.16062 -0.423408,0.22222 -0.244421,0.0602 -0.728154,0.0423 l -0.584512,-0.0216 z"
             style="stroke-width:0.06146839px"
             id="path1394" />
          <path
             d="m -22.646201,136.41659 0.554538,0.0114 -0.04442,2.15045 -0.554538,-0.0114 z"
             style="stroke-width:0.06146839px"
             id="path1396" />
          <path
             d="m -21.834942,136.43695 1.982326,0.0109 -0.0023,0.41922 -0.713118,-0.004 -0.0095,1.73166 -0.554648,-0.003 0.0095,-1.73165 -0.71456,-0.004 z"
             style="stroke-width:0.06146839px"
             id="path1398" />
          <path
             d="m -19.601063,136.44173 0.554627,-0.006 0.0219,2.15081 -0.554628,0.006 z"
             style="stroke-width:0.06146839px"
             id="path1400" />
          <path
             d="m -17.547939,136.76752 q -0.253452,0.007 -0.387755,0.19852 -0.134302,0.19123 -0.124528,0.53108 0.0097,0.33842 0.154803,0.52161 0.145071,0.18319 0.398523,0.1759 0.254893,-0.007 0.389195,-0.19855 0.134303,-0.19123 0.124571,-0.52965 -0.0098,-0.33985 -0.154845,-0.52304 -0.145071,-0.1832 -0.399964,-0.17587 z m -0.01155,-0.40177 q 0.518425,-0.0149 0.820731,0.27329 0.302306,0.28821 0.317339,0.81095 0.01499,0.52131 -0.27025,0.82641 -0.285243,0.3051 -0.803668,0.32001 -0.516985,0.0149 -0.820731,-0.27329 -0.302306,-0.28821 -0.317298,-0.80951 -0.01503,-0.52275 0.270209,-0.82785 0.286682,-0.30515 0.803668,-0.32001 z"
             style="stroke-width:0.06146839px"
             id="path1402" />
          <path
             d="m -16.090418,136.35594 0.618566,-0.0338 0.861529,1.43041 -0.08041,-1.47305 0.525061,-0.0287 0.11724,2.14772 -0.618565,0.0338 -0.86153,-1.43041 0.08041,1.47305 -0.525061,0.0287 z"
             style="stroke-width:0.06146839px"
             id="path1404" />
          <path
             d="m -13.671268,136.21547 1.492351,-0.11598 0.03248,0.41798 -0.939363,0.073 0.03103,0.3993 0.883346,-0.0686 0.03248,0.41797 -0.883346,0.0686 0.03818,0.49123 0.970962,-0.0755 0.03248,0.41798 -1.523951,0.11843 z"
             style="stroke-width:0.06146839px"
             id="path1406" />
          <path
             d="m -10.828226,136.92979 q 0.173467,-0.0172 0.241606,-0.0891 0.06957,-0.0721 0.0549,-0.21972 -0.01453,-0.14623 -0.09677,-0.20176 -0.08081,-0.0557 -0.25428,-0.0384 l -0.232245,0.0231 0.05455,0.54907 z m -0.194361,0.40441 0.08047,0.80999 -0.551939,0.0548 -0.212632,-2.14037 0.842962,-0.0838 q 0.422914,-0.042 0.633418,0.0804 0.211938,0.12227 0.2424153,0.42906 0.021078,0.21218 -0.068612,0.35862 -0.08826,0.14631 -0.288287,0.23133 0.115819,0.0145 0.213818,0.0975 0.09929,0.0814 0.2094124,0.25717 l 0.36001,0.57808 -0.5877794,0.0584 -0.313754,-0.50595 q -0.0948,-0.15273 -0.182355,-0.20339 -0.08612,-0.0508 -0.22088,-0.0374 z"
             style="stroke-width:0.06146839px"
             id="path1408" />
        </g>
        <path
           style="display:none;fill:none;fill-rule:evenodd;stroke:#000000;stroke-width:0.26458332px;stroke-linecap:butt;stroke-linejoin:miter;stroke-opacity:1"
           d="m -34.184375,137.79968 c 7.785124,0.74267 15.76836,1.33675 26.3260413,0"
           id="path1257"
           inkscape:connector-curvature="0"
           sodipodi:nodetypes="cc" />
      </g>
    </g>
    <g
       id="g1046"
       transform="matrix(1.3195371,0,0,0.98834254,119.19904,-2.6047091)">
      <path
         inkscape:connector-curvature="0"
         id="path1040"
         d="M -55.752423,161.92198 -4.1159506,161.5478"
         style="fill:none;fill-rule:evenodd;stroke:#000000;stroke-width:3;stroke-linecap:butt;stroke-linejoin:miter;stroke-opacity:1" />
      <path
         style="fill:none;fill-rule:evenodd;stroke:#cccccc;stroke-width:1.5;stroke-linecap:butt;stroke-linejoin:miter;stroke-opacity:1"
         d="M -55.752423,161.92198 -4.1159506,161.5478"
         id="path1042"
         inkscape:connector-curvature="0" />
    </g>
  </g>
</svg>
